<?xml version="1.0" encoding="UTF-8" standalone="no"?>
<svg
   xmlns:dc="http://purl.org/dc/elements/1.1/"
   xmlns:cc="http://creativecommons.org/ns#"
   xmlns:rdf="http://www.w3.org/1999/02/22-rdf-syntax-ns#"
   xmlns:svg="http://www.w3.org/2000/svg"
   xmlns="http://www.w3.org/2000/svg"
   xmlns:sodipodi="http://sodipodi.sourceforge.net/DTD/sodipodi-0.dtd"
   xmlns:inkscape="http://www.inkscape.org/namespaces/inkscape"
   width="210"
   height="210"
   viewBox="0 0 210 210"
   version="1.1"
   id="svg4"
   sodipodi:docname="Logo.svg"
   inkscape:version="1.0.1 (3bc2e813f5, 2020-09-07)">
  <metadata
     id="metadata10">
    <rdf:RDF>
      <cc:Work
         rdf:about="">
        <dc:format>image/svg+xml</dc:format>
        <dc:type
           rdf:resource="http://purl.org/dc/dcmitype/StillImage" />
        <dc:title />
      </cc:Work>
    </rdf:RDF>
  </metadata>
  <defs
     id="defs8" />
  <sodipodi:namedview
     pagecolor="#ffffff"
     bordercolor="#666666"
     borderopacity="1"
     objecttolerance="10"
     gridtolerance="10"
     guidetolerance="10"
     inkscape:pageopacity="0"
     inkscape:pageshadow="2"
     inkscape:window-width="1920"
     inkscape:window-height="1051"
     id="namedview6"
     showgrid="false"
     inkscape:pagecheckerboard="true"
     inkscape:zoom="2.8284271"
     inkscape:cx="83.22509"
     inkscape:cy="99.155444"
     inkscape:window-x="-9"
     inkscape:window-y="-9"
     inkscape:window-maximized="1"
     inkscape:current-layer="svg4"
     inkscape:document-rotation="0" />
  <g
     id="g895"
     transform="matrix(1.0261096,0,0,1.0261096,-2.7415093,-2.7415065)">
    <path
       id="path2"
       style="fill:#ffc0cb;fill-opacity:1;stroke-width:7.97932;stroke-miterlimit:4;stroke-dasharray:none"
       d="M 57.126217,17.228147 9.2499975,57.126211 V 112.97814 L 104.99999,192.77185 V 49.145625 Z" />
    <path
       id="path2-9"
       style="fill:#ffffcb;fill-opacity:1;stroke:#00000c;stroke-width:7.38669;stroke-miterlimit:4;stroke-dasharray:none;stroke-opacity:1;paint-order:normal"
       d="m 152.87388,21.841778 44.18278,37.049886 v 51.864876 l -88.36331,74.09749 V 51.480784 Z" />
    <rect
       style="opacity:0.9932;fill:#000000;fill-opacity:1;stroke:#000012;stroke-width:2.09915;stroke-linecap:round;stroke-linejoin:miter;stroke-miterlimit:4;stroke-dasharray:none;stroke-opacity:1;paint-order:stroke markers fill"
       id="rect864"
       width="22.358644"
       height="2.3678548"
       x="153.9359"
       y="89.412392" />
    <rect
       style="opacity:0.9932;fill:#000000;fill-opacity:1;stroke:#000012;stroke-width:2.58374;stroke-linecap:round;stroke-linejoin:miter;stroke-miterlimit:4;stroke-dasharray:none;stroke-opacity:1;paint-order:stroke markers fill"
       id="rect864-8"
       width="42.578377"
       height="1.8837507"
       x="129.49486"
       y="-45.625011"
       transform="rotate(45)" />
  </g>
  <text
     xml:space="preserve"
     style="font-size:40px;line-height:1.25;font-family:'Bauhaus 93';-inkscape-font-specification:'Bauhaus 93, '"
     x="29.698484"
     y="182.08"
     id="text836"><tspan
       sodipodi:role="line"
       id="tspan834"
       x="29.698484"
       y="182.08" /></text>
  <g
     aria-label="DATimE"
     id="text840"
     style="font-size:46.5679px;line-height:1.25;font-family:'Arial Rounded MT Bold';-inkscape-font-specification:'Arial Rounded MT Bold, ';stroke-width:1.1642">
    <path
       d="m 27.714168,96.449113 q 0,2.819541 -1.864535,4.638597 -1.841797,1.79632 -4.661338,1.79632 H 13.048008 V 67.298698 h 8.140287 q 2.842279,0 4.684076,1.819059 1.841797,1.79632 1.841797,4.615861 z M 24.553554,96.130778 V 74.006477 q 0,-1.750844 -1.114174,-2.819541 -1.091435,-1.091435 -2.842279,-1.091435 h -4.388479 v 29.991729 h 4.206573 q 1.841797,0 2.978709,-1.045958 1.15965,-1.068697 1.15965,-2.910494 z"
       style="font-style:normal;font-variant:normal;font-weight:normal;font-stretch:normal;font-family:'Agency FB';-inkscape-font-specification:'Agency FB';stroke-width:1.1642"
       id="path839" />
    <path
       d="m 47.610122,102.88403 h -3.137877 l -1.250602,-7.912902 h -7.071591 l -1.250603,7.912902 h -3.046923 v -0.0909 l 6.343967,-35.585335 h 3.115138 z M 42.812354,92.174325 39.697216,72.892304 36.55934,92.174325 Z"
       style="font-style:normal;font-variant:normal;font-weight:normal;font-stretch:normal;font-family:'Agency FB';-inkscape-font-specification:'Agency FB';stroke-width:1.1642"
       id="path841" />
    <path
       d="M 64.140818,70.095501 H 58.638166 V 102.88403 H 55.477551 V 70.095501 h -5.548129 v -2.796803 h 14.211396 z"
       style="font-style:normal;font-variant:normal;font-weight:normal;font-stretch:normal;font-family:'Agency FB';-inkscape-font-specification:'Agency FB';stroke-width:1.1642"
       id="path843" />
    <path
       d="m 68.03662,88.501409 h -1.637145 v -2.037336 h 1.637145 z m -0.02425,14.382621 H 66.423729 V 91.08446 h 1.588637 z"
       style="font-style:normal;font-variant:normal;font-weight:normal;font-stretch:normal;font-size:24.8361px;font-family:'Agency FB';-inkscape-font-specification:'Agency FB';fill:#ffffff;stroke-width:1.1642"
       id="path845" />
    <path
       d="M 82.613278,102.88403 H 81.000386 V 92.527574 l -3.51683,0.09702 v 10.25944 H 75.882792 V 92.527574 l -3.516831,0.09702 v 10.25944 H 70.75307 V 91.08446 h 1.612891 v 0.32743 q 0.945906,-0.12127 1.891812,-0.254668 1.152066,-0.145524 1.90394,-0.145524 0.739747,0 1.09143,0.4487 1.018668,-0.133397 2.025209,-0.278922 1.321843,-0.169778 2.000955,-0.169778 1.333971,0 1.333971,1.321844 z"
       style="font-style:normal;font-variant:normal;font-weight:normal;font-stretch:normal;font-size:24.8361px;font-family:'Agency FB';-inkscape-font-specification:'Agency FB';fill:#ffffff;stroke-width:1.1642"
       id="path847" />
    <path
       d="M 98.440599,102.88403 H 86.753147 V 67.298698 h 11.551022 v 2.796803 h -8.390408 v 13.279128 h 7.640047 v 2.842279 h -7.640047 v 13.870322 h 8.526838 z"
       style="font-style:normal;font-variant:normal;font-weight:normal;font-stretch:normal;font-family:'Agency FB';-inkscape-font-specification:'Agency FB';stroke-width:1.1642"
       id="path849" />
  </g>
</svg>
